<mxfile host="www.draw.io" modified="2019-12-01T13:41:54.184Z" agent="Mozilla/5.0 (X11; Linux x86_64) AppleWebKit/537.36 (KHTML, like Gecko) Chrome/78.0.3904.108 Safari/537.36" etag="nlRtUSfTHLrG2nJ-f5W7" version="12.3.3" type="github" pages="1">
  <diagram id="K70JlVMhP-X2wOlM4xXd" name="Page-1">
    <mxGraphModel dx="942" dy="595" grid="1" gridSize="10" guides="1" tooltips="1" connect="1" arrows="1" fold="1" page="1" pageScale="1" pageWidth="827" pageHeight="1169" math="0" shadow="0">
      <root>
        <mxCell id="0"/>
        <mxCell id="1" parent="0"/>
        <mxCell id="THzQpXgZw4FpQ5s2hwLU-1" value="" style="rounded=0;whiteSpace=wrap;html=1;" parent="1" vertex="1">
          <mxGeometry x="30" y="40" width="500" height="360" as="geometry"/>
        </mxCell>
        <mxCell id="THzQpXgZw4FpQ5s2hwLU-3" value="BROWSER" style="rounded=0;whiteSpace=wrap;html=1;" parent="1" vertex="1">
          <mxGeometry x="196" y="70" width="190" height="30" as="geometry"/>
        </mxCell>
        <mxCell id="THzQpXgZw4FpQ5s2hwLU-4" value="" style="rounded=0;whiteSpace=wrap;html=1;fillColor=#dae8fc;strokeColor=#6c8ebf;" parent="1" vertex="1">
          <mxGeometry x="50" y="135" width="460" height="205" as="geometry"/>
        </mxCell>
        <mxCell id="THzQpXgZw4FpQ5s2hwLU-5" value="&lt;b&gt;&lt;font style=&quot;font-size: 17px&quot;&gt;HOST&lt;/font&gt;&lt;/b&gt;" style="text;html=1;strokeColor=none;fillColor=none;align=center;verticalAlign=middle;whiteSpace=wrap;rounded=0;" parent="1" vertex="1">
          <mxGeometry x="60" y="60" width="107" height="20" as="geometry"/>
        </mxCell>
        <mxCell id="THzQpXgZw4FpQ5s2hwLU-6" value="" style="shape=image;imageAspect=0;aspect=fixed;verticalLabelPosition=bottom;verticalAlign=top;image=data:image/png,iVBORw0KGgoAAAANSUhEUgAAAVAAAAEfCAMAAAAgOG5SAAAApVBMVEVHcEwGbaUGbaUGbaUHgcMGbaUGbaUGbaUGbaUGdK8GbaUGbaUGbaUGbaUGbaUGbaUGbaUGbaUHfLsJnOwGbaUJlOAIkNr////y8vIHhMkHebcJluMJmegIdK4Ii9MIk94HgMFNXGQGZ532+Pl8r8vA5vm41eWCzPRCkLkepO7V5e7j7fKPu9K3vsFhv/Imf7Clyd02re5dn8NHtfGGkJZmcnkZmuDmaju1AAAAE3RSTlMAEGCg4PCAQMDhMNAg4JBQsHDoUT5M+wAAD2RJREFUeNrtndliozoShgEGiTH7xI7jNe5JZ0+fTnefOe//aGPAGEloA0MiSP0XubGJrc8lqVSlkiwLBAKBQCAQCAQCgUAgEAgEAoFAIBAIBAKBQCAQCNSjZr5UAKit8FwqAARAAegEgf6Lp/8A0M5Ar3i6BqAAFIBOF+jtes38BaAXAb3m/QWgABSAAlAQAAWgABQEQAEoAAWgALQ/oJvVivkLQC8CCtEmAApARydFjp2rIMf2b64AqCKD2UUAFIACUMOBinPsXV4BoJIZu8srbT4+cW0A2iNQ25t7GID2B9TN3x/bUwQqyLF3eaX1jBjNvk7kqMsr+h0+qhwDB4D2ATSuXa0YgF4OdJa/ebcviboA9GKgfv7m66vtblJEPw9o8cn5THZ1mBLRzwNauEybq5poBkAvARrmbz2c/NeSaAJALwCa5W+9vSKJeiEA7Q40j1Lv6jXWOn/SB6CdgRY9fkWsWncTGUY/C6hTT0mlbotOb08GqCDH3uUV7Tl+RwVWVtNYMX1WtCki5niy04cAtBvQ/I17zsMIgHYCitkhtJrpvXFgm3XNsXd5RaeSPuH9JvvxePcD5DYvy4eixpyUazxLeiOBrhtA8/VSBED7A7ofzTw/QPb9soy9ywW6Hc0gOsBcftn87zMLT8IV9eNypiwU+DHCNgBVAuV3+TJE0lSAZgC0E9CVcPgNHCOB9ph9vyxj3xrofO6HBgLtMaZ0WRzK4ZtyAXS9Pqz2pVaHQz0KeBkAFQLlLj2PQNeH/YLV9WptnJEaB9TmBEfyIOCCr+vDyUhnAFQQeg6a4bujFkLti+BeBBYqAuryFvMbMdDFyqg9UOYBTcptI7oGuljsjIrtmQfU8pp9XmmgCICKgbrNeV7C07QUnoFAZ3PWRGUGejAsyWwg0GrzXR1qEuPcrOaGRUpNBFp8p91Wx0CLh+fYQKA9Zt8vz9inc3JBLzHQ251xuRHjok2Wlfjl4melNNCSZ2ADUDFQHFf1CoetykDLNZJnVkTUIKA4QX4dk9srR9BTRM+AAXQ2bPa9U8Y+okOch61qBL1em1N3k80N12qj8ukrnGaUL8ZG0zzsVT797TkMGpgxfvqmstytV7eKqMh+ddjVRWGGzO850PXhqJVB2l/fcmas0kDXlehUkjHTezFM5V/0ynRtyemcycwZtDwqvJJRAC27eTMnH8VGbcs5A92OwkD3DMw0M21zw2iAlgGlwkBRoQwbecrDWIBu6giy2XtDRwJ0S0SQ8TiAbkYwIy0KB94CoD11eMOSxAqgC/M7fJEkNn0zeFQ59gvzO/xqDIWe+dLzsDB7VtqQuxhsANpXhzdsF4NARV3AwuhZiUwamV+IjIwHuiF3MZhf5FlsEl4YPCttyW02I6j3KhJzt+YOouc00nokh7XZtSO6NXgALcNMgTUCeWdHdGPwAFoa6CgOEfXPs9LC4A5fuEzpGHgWac/dwsw+v6U3fo7jYAzH4FlpQXX4kZyLEdaz0sbQAdS8jZ/KWelwySD6/Ofxz/OQE9LtfDQzUq70skH01/0y1/2fwXiWHX48ZzURg2iHPv/XstJfA01I5Qwfjec0sfC816FDn/+Vo3x4ee2daM1zP64Ob5X1f+uOff7Y31/+9+3btx9HoK+D8Cx3Jo/q5Ku4e58/GuhNzvN/fXf6BT2ABmPiWdYCdevzj8vlj29noI8D8FyN8QzWqO7zm25Av/3940ePQBfMADq2U4KLPn/dxUTPQI9I+wPK8hzd6ZblydFdpqWj0/RyAtqfhbKlMiM8Itivfft2Jvp8t1z+XRno8rlnnovdyDxQ2rdfdTHRY59f/vj7OIT2NictmAneG+UlNVFXE716Oa+UXp6H4DnSY+tRZxN9vj/xvH/u1Z+veI70yh/b62yiV38e7u/vH3qJjTR5jvZsYNJEPy0s2uQ53qtUKBP9pMj9ZkI8TyZ60Oz0+xXw1DLRarkk7/R5JfVmyO5+OwGeJ190re70ZWH6YUieE7ncyyfmJRHRzaGqELodrLvvp3JZWhHFqzo9bxjdrM6lqrvv90OZ56m0awoXexXzUjXTM0S3e6Lwd/f9rs9o8qZx9NJUrvAsT4leH/bXBNHt9X613hHlgD9znMvl3XP/5llNR1O5CXlWzPTz/+aa73aNGupcv9+rtft9/+Z5Gj6DyVza69RAC6isnt5el7UeezbPqrunE7pW2hUT/fn7/W5J69L1+5ZnnuO/2ody7wOaaIn059P3h9dlU3e/+sNZmefULpIvF0w/39+/l3p74KLsIQS6WfDM07etiamcmJ4ebiotZepKlLHO24N5R6b3THRXE5Uive8B5/kcET+0rOkSfa+J3kmIPlyMs+rtkzRP0h39fqOFtGXqgz3Mar+etnmSRJ9etZC2GEe3QpxRYk1ZYek9kQPpEamI6f2vbjRrnB6yJi47PS00SSMVMr1TBkq2TZqLOnbl2tb0hU6BpbebGw2mjy1hnq/tyHGG1pcQPp3i+fRwc6OGyp+ajiy5R6iu1l8OJ9HteUgLqhTWu0eapAAlOXJ+LZykkc6f3m+Euqt0/6vAuJGd3L8g49Qesq0vJht5Vazp7eVGqcd/ZCyJs1MLv9OxvqJCtw4tv72qiL6KkZKmeTTOOLS+qgikxwDzSwek1ysK5txzE+tLK4w9Ms789iBn+v6LOtSXyaJ4rmNbX162E9CpkN/fHyRY7//6p7jJcNc8OzUBmNX6Po4ax04/HcEWMehSb3lE+vfT0xP3kGovzULASDNFQccTvyM3mwE/bt9P4pZQg9TIa6DN8vez2PfUVunHCINdtsCKEYqrC0Qqhke5CDkYjBIEAoFAIBAIBAKBQCAQCAQCgUAg0KcozNBHpnVtB007ixx/bBG1443yUEB9nfYnf9SxXXg+wTJOSlUW+INOjq227s6nmgzF58zvx3ze+eMwAAWgABSAAlAACkABKAAFoAAUgAJQAApAASgABaAAFIAC0LEoTFDq+2UBEdYFipFbPuMjRze1NnPQ6Zk4w62B2k7qu1inDYKgv51/OpEjs8/P+Mjprf4sZKsz07K2WgrUSdkSYjVTtrSWKYlXAs08Yc4pzPhtYN4VkUeLs9XT86iX0zjIowPogz7EQG0UcR7y5V0V+7zSREcbaOgLXxe3gZZPpAHrgz3IZy7O8NqxoAjTyywh0CQSPCQ5xjf0RdWeWA9oVrc/1W8D/R3mddYRCepQLySKJeWtfsIHaqfiZzxRxtmRfFBsq4HOyN+DvqEbR5I2hPxZdiaulr6o12ea1ddU0+SV2/xtCq68uNtWAUX0+6mfSvqvqavVaqCSn/cSF8Odtwc6U5Vscy6TsH1VkbctBcr+hm6bNjg8oPNBgGrznLfgybkP0lafRuBKgNqItbqwVRucdkC7762K5+2BavBs2miqfsQTA20MkeSFAEjn2ydtgHa/HpQde3yEEge5gQwoa2uRi7IEIbZHI9kP5/kI4Qy5UeMTeECbMzj5zxO2DTFymm04j6NcoOUz8akNUWcDDSlbC2o3OOQ4FFxb8+LaVBxfOA4ljOtQW7urtlCpeTJtiIRtCIRAiWdsx438Czx7X+zONgatOY8Ncz4q1XTiGlibbFqABb4pfwxtOGiMY+kLVgiNNiA+UK/HjZqO1B1nh8rTlySYNa86sF1uv4ylLlVGTjMs0MSTepXU78tpQ9CYaRigvV4vEEn9HHawbMwA3JtzCa/Ws9nFiWARUjjsJ1A0UJV5tmqDywHa62Vhjur/2lETqCfnSVkjaro1ov414y49G0urhg2q2xAwJooH42kF/FUH2cwGUEft/Prs6pAYQdU7vYl/31j5c9a0vtLVCZlPx83VWV8Bu/ofC4OAiAWaqn9cgl/C/Aga15XXQDOleZJt8ISuTkL/wLinFaZstHO1hlm6vZ6YDWIM0m0TxalbLwxIcduAdHyZGQ2059sWU52FVkYDxTqdtzbRgP5RojYpEEE0StQGie3XJprRQHsu3vEEkUUaDg0UaX0Zl3ompNrTDWiEFR0owBJRLcXKmaNrVFmvI6YUHFfL2BJqkMLqoVoJ1G9pz5I1OtYZJS5LZ0rbiSigvt7wQwHNqKVlxy7vqr0QzQAPHiqvqpkfxnygSG/FgMifxLcuGUPlX64LUNsAoN5cq67O7x8od2C6DKhlAFDN7jIEUB7R8QON9CbsvoD62VwaOmgL1DMAqNNlDPW4QIOWQPOVpiMl2haoOyTQmV73jSlHydfxXQnPE1NOVDug5UrTlS29w5anZttDArX0IhYB1WFjLRfIEaz1kjbfKuNk4BpEW+FEtjUo0EDHSQ9pNzjTgpMK1v9uG6C4GRRrdoyg/apnOKCuTp93aYIzncRgyLwp0AioSIBScW5XFHzFnw/U0YATsrtTIo0WpMziLm6z2OP8fyojhQSLXP/zgRJxj0wd+UpZkwjU3/i0qJ1pBF5lQOnslsP3J7SP8BhwB7GrymaQwTunsXqOlfHloBFUVYfIuT2AIpq0a8MHAsWqXIDD5Mxpm+VHqcgRz2n+H767ZWOMZUDF7miozGfMmEsxhtzjTsAJQinPeujC8sUgyTPixf15u0cL1z+aSYCKiabyNhS7WKlo6pBAZ7IEGLX/JeL+Cs17YDG/bzqibR+FkfmyvHxzPqdtMZQm8VBz7B60CiMW7yBwIsG2GmrrC73tgt6U7fP7AnNDJ7Ep25WGX0QOPrU7xKd+LRxwRpphy1rorQx+VcfBFhbEot6X1ymcWm4zFQyU00lvQJq7yelFTN5hF8jjWb7AwRe0ga5g+CigIZuq9fLiksaiTWwr5evHZxqby2byMEZEXwek2M4oc/C12vBRQLX2ejamT19j5exIZjjZrkzJwoHayIJatcH7MKDNzVhqnjq7kR2pzyDZEystWvD4w7qaaPxxQJXfhufe2WlrnmqirqXMCZDfNe3YhuFrLeUVHa6t9g+kVRcCn6qhzFIDJX8UKkYWSttA+b4fULxqi+mId6NKhgph5ZekECSSr5SUER1ZG7IPWynVH+K3Mk9pEyJZIM3h12cRBYSpItQXi0IJwjaEgphQag2ppPl1PFex94e6CPm8T18VNIxkOOvVG1KEdDjAeUg5bUDD7HNo4smoHfd6Fz0nVB2Hj3QiPjPqAtWIvZ9beWSwS6z85W1I+W2I+95aL2krRggh5OAW+9Js7BQPtbrpFCenD+K5EA5C0s+fIdkNtac2ZJI2hAg5cJsoCAQCgUAgEAgEAoFAIBAIBAKBQCAQCAQCgUCgyev/jain01nd9dkAAAAASUVORK5CYII=;" parent="1" vertex="1">
          <mxGeometry x="90" y="135" width="47" height="40" as="geometry"/>
        </mxCell>
        <mxCell id="THzQpXgZw4FpQ5s2hwLU-8" value="SIMBAD-CLIENT" style="rounded=0;whiteSpace=wrap;html=1;fillColor=#fff2cc;strokeColor=#d6b656;" parent="1" vertex="1">
          <mxGeometry x="196" y="140" width="190" height="30" as="geometry"/>
        </mxCell>
        <mxCell id="THzQpXgZw4FpQ5s2hwLU-9" value="" style="endArrow=classic;startArrow=classic;html=1;entryX=0.5;entryY=1;entryDx=0;entryDy=0;exitX=0.5;exitY=0;exitDx=0;exitDy=0;" parent="1" source="THzQpXgZw4FpQ5s2hwLU-8" target="THzQpXgZw4FpQ5s2hwLU-3" edge="1">
          <mxGeometry width="50" height="50" relative="1" as="geometry">
            <mxPoint x="50" y="370" as="sourcePoint"/>
            <mxPoint x="100" y="320" as="targetPoint"/>
          </mxGeometry>
        </mxCell>
        <mxCell id="THzQpXgZw4FpQ5s2hwLU-15" value="Added Components" style="rounded=0;html=1;labelPosition=right;verticalLabelPosition=middle;align=left;verticalAlign=middle;spacingRight=0;horizontal=1;fillColor=#fff2cc;strokeColor=#d6b656;" parent="1" vertex="1">
          <mxGeometry x="368" y="360" width="18" height="20" as="geometry"/>
        </mxCell>
        <mxCell id="THzQpXgZw4FpQ5s2hwLU-29" style="edgeStyle=orthogonalEdgeStyle;rounded=0;orthogonalLoop=1;jettySize=auto;html=1;exitX=0.5;exitY=0.5;exitDx=0;exitDy=0;exitPerimeter=0;entryX=1;entryY=0.5;entryDx=0;entryDy=0;fontSize=9;startArrow=classic;startFill=1;" parent="1" source="THzQpXgZw4FpQ5s2hwLU-25" target="THzQpXgZw4FpQ5s2hwLU-3" edge="1">
          <mxGeometry relative="1" as="geometry"/>
        </mxCell>
        <mxCell id="THzQpXgZw4FpQ5s2hwLU-25" value="User" style="shape=umlActor;verticalLabelPosition=bottom;labelBackgroundColor=#ffffff;verticalAlign=top;html=1;outlineConnect=0;fontSize=12;align=left;" parent="1" vertex="1">
          <mxGeometry x="413" y="65" width="20" height="40" as="geometry"/>
        </mxCell>
        <mxCell id="H5_1IvgiMDN97Av46aT9-2" value="SIMBAD-PIPELINE-SERVER" style="rounded=0;whiteSpace=wrap;html=1;fillColor=#fff2cc;strokeColor=#d6b656;labelPosition=center;verticalLabelPosition=middle;align=center;verticalAlign=middle;spacing=4;spacingTop=0;" parent="1" vertex="1">
          <mxGeometry x="90" y="200" width="410" height="30" as="geometry"/>
        </mxCell>
        <mxCell id="H5_1IvgiMDN97Av46aT9-4" value="Simulation Request" style="endArrow=classic;html=1;exitX=0.25;exitY=1;exitDx=0;exitDy=0;entryX=0.373;entryY=0.033;entryDx=0;entryDy=0;labelPosition=left;verticalLabelPosition=middle;align=right;verticalAlign=middle;labelBackgroundColor=none;spacing=6;entryPerimeter=0;" parent="1" source="THzQpXgZw4FpQ5s2hwLU-8" target="H5_1IvgiMDN97Av46aT9-2" edge="1">
          <mxGeometry width="50" height="50" relative="1" as="geometry">
            <mxPoint x="60" y="450" as="sourcePoint"/>
            <mxPoint x="110" y="400" as="targetPoint"/>
          </mxGeometry>
        </mxCell>
        <mxCell id="H5_1IvgiMDN97Av46aT9-5" value="Progress Updates&lt;br&gt;Results" style="endArrow=classic;html=1;entryX=0.75;entryY=1;entryDx=0;entryDy=0;exitX=0.607;exitY=0.033;exitDx=0;exitDy=0;align=left;labelBackgroundColor=none;spacing=5;exitPerimeter=0;" parent="1" source="H5_1IvgiMDN97Av46aT9-2" target="THzQpXgZw4FpQ5s2hwLU-8" edge="1">
          <mxGeometry width="50" height="50" relative="1" as="geometry">
            <mxPoint x="60" y="450" as="sourcePoint"/>
            <mxPoint x="110" y="400" as="targetPoint"/>
          </mxGeometry>
        </mxCell>
        <mxCell id="H5_1IvgiMDN97Av46aT9-7" value="REST API" style="text;html=1;strokeColor=none;fillColor=none;align=center;verticalAlign=middle;whiteSpace=wrap;rounded=0;" parent="1" vertex="1">
          <mxGeometry x="261" y="175" width="60" height="20" as="geometry"/>
        </mxCell>
        <mxCell id="teReYaU-fVVsF2tNRBn1-2" value="SIMBAD-CLI" style="rounded=0;whiteSpace=wrap;html=1;fillColor=#f8cecc;strokeColor=#b85450;" parent="1" vertex="1">
          <mxGeometry x="90" y="290" width="120" height="30" as="geometry"/>
        </mxCell>
        <mxCell id="teReYaU-fVVsF2tNRBn1-13" value="Plots" style="rounded=0;orthogonalLoop=1;jettySize=auto;html=1;exitX=0.75;exitY=0;exitDx=0;exitDy=0;entryX=0.898;entryY=0.988;entryDx=0;entryDy=0;entryPerimeter=0;startArrow=none;startFill=0;endArrow=classic;endFill=1;dashed=1;labelPosition=left;verticalLabelPosition=middle;align=right;verticalAlign=middle;labelBackgroundColor=none;" parent="1" source="teReYaU-fVVsF2tNRBn1-3" target="H5_1IvgiMDN97Av46aT9-2" edge="1">
          <mxGeometry relative="1" as="geometry"/>
        </mxCell>
        <mxCell id="teReYaU-fVVsF2tNRBn1-3" value="SIMBAD-REPORTS" style="rounded=0;whiteSpace=wrap;html=1;fillColor=#f8cecc;strokeColor=#b85450;" parent="1" vertex="1">
          <mxGeometry x="368" y="290" width="120" height="30" as="geometry"/>
        </mxCell>
        <mxCell id="teReYaU-fVVsF2tNRBn1-4" value="SIMBAD-ANALYZER" style="rounded=0;whiteSpace=wrap;html=1;fillColor=#f8cecc;strokeColor=#b85450;" parent="1" vertex="1">
          <mxGeometry x="229" y="290" width="120" height="30" as="geometry"/>
        </mxCell>
        <mxCell id="teReYaU-fVVsF2tNRBn1-9" value="Simulation&lt;br&gt;Configuration" style="endArrow=classic;html=1;exitX=0.076;exitY=1.033;exitDx=0;exitDy=0;exitPerimeter=0;entryX=0.25;entryY=0;entryDx=0;entryDy=0;align=right;labelPosition=left;verticalLabelPosition=middle;verticalAlign=middle;labelBackgroundColor=none;dashed=1;" parent="1" source="H5_1IvgiMDN97Av46aT9-2" target="teReYaU-fVVsF2tNRBn1-2" edge="1">
          <mxGeometry width="50" height="50" relative="1" as="geometry">
            <mxPoint x="60" y="610" as="sourcePoint"/>
            <mxPoint x="121" y="290" as="targetPoint"/>
          </mxGeometry>
        </mxCell>
        <mxCell id="teReYaU-fVVsF2tNRBn1-17" value="Existing Components" style="rounded=0;html=1;labelPosition=right;verticalLabelPosition=middle;align=left;verticalAlign=middle;spacingRight=0;horizontal=1;fillColor=#f8cecc;strokeColor=#b85450;" parent="1" vertex="1">
          <mxGeometry x="229" y="360" width="18" height="20" as="geometry"/>
        </mxCell>
        <mxCell id="teReYaU-fVVsF2tNRBn1-26" value="" style="endArrow=classic;dashed=1;html=1;labelBackgroundColor=none;align=center;rounded=0;startArrow=none;startFill=0;endFill=1;labelPosition=center;verticalLabelPosition=top;verticalAlign=top;entryX=0.25;entryY=0;entryDx=0;entryDy=0;exitX=0.75;exitY=0;exitDx=0;exitDy=0;" parent="1" source="teReYaU-fVVsF2tNRBn1-2" target="teReYaU-fVVsF2tNRBn1-4" edge="1">
          <mxGeometry width="50" height="50" relative="1" as="geometry">
            <mxPoint x="179" y="285" as="sourcePoint"/>
            <mxPoint x="259" y="285" as="targetPoint"/>
            <Array as="points">
              <mxPoint x="180" y="225"/>
              <mxPoint x="230" y="225"/>
              <mxPoint x="259" y="225"/>
            </Array>
          </mxGeometry>
        </mxCell>
        <mxCell id="teReYaU-fVVsF2tNRBn1-28" value="Simulation &lt;br&gt;Stream" style="text;html=1;align=center;verticalAlign=middle;resizable=0;points=[];;labelBackgroundColor=none;" parent="teReYaU-fVVsF2tNRBn1-26" vertex="1" connectable="0">
          <mxGeometry x="0.0924" y="2" relative="1" as="geometry">
            <mxPoint x="-8" y="32" as="offset"/>
          </mxGeometry>
        </mxCell>
        <mxCell id="teReYaU-fVVsF2tNRBn1-29" value="" style="endArrow=classic;dashed=1;html=1;labelBackgroundColor=none;align=center;rounded=0;startArrow=none;startFill=0;endFill=1;labelPosition=center;verticalLabelPosition=top;verticalAlign=top;entryX=0.25;entryY=0;entryDx=0;entryDy=0;" parent="1" target="teReYaU-fVVsF2tNRBn1-3" edge="1">
          <mxGeometry width="50" height="50" relative="1" as="geometry">
            <mxPoint x="319" y="285" as="sourcePoint"/>
            <mxPoint x="399.0000000000001" y="285" as="targetPoint"/>
            <Array as="points">
              <mxPoint x="319" y="290"/>
              <mxPoint x="319" y="225"/>
              <mxPoint x="399" y="225"/>
            </Array>
          </mxGeometry>
        </mxCell>
        <mxCell id="teReYaU-fVVsF2tNRBn1-30" value="Processed &lt;br&gt;Data" style="text;html=1;align=center;verticalAlign=middle;resizable=0;points=[];;labelBackgroundColor=none;" parent="teReYaU-fVVsF2tNRBn1-29" vertex="1" connectable="0">
          <mxGeometry x="0.0924" y="2" relative="1" as="geometry">
            <mxPoint x="-8" y="32" as="offset"/>
          </mxGeometry>
        </mxCell>
      </root>
    </mxGraphModel>
  </diagram>
</mxfile>
